<svg width="383" height="503" viewBox="0 0 383 503" fill="none" xmlns="http://www.w3.org/2000/svg">
<path d="M382.83 317.031C382.83 292.679 377.879 268.566 368.259 246.069C358.64 223.571 344.54 203.129 326.766 185.91C308.991 168.691 287.89 155.032 264.666 145.713C241.443 136.394 216.552 131.598 191.415 131.598C166.278 131.598 141.387 136.394 118.164 145.713C94.9401 155.032 73.8386 168.691 56.0641 185.91C38.2896 203.129 24.1901 223.571 14.5706 246.069C4.95109 268.566 -2.19754e-06 292.679 0 317.031L191.415 317.031H382.83Z" fill="#38BDF9"/>
<path d="M382.83 185.433C382.83 161.082 377.879 136.969 368.259 114.471C358.64 91.9732 344.54 71.5312 326.766 54.3121C308.991 37.0931 287.89 23.4341 264.666 14.1153C241.443 4.79637 216.552 -1.06443e-06 191.415 0C166.278 1.06444e-06 141.387 4.79637 118.164 14.1153C94.9401 23.4342 73.8386 37.0931 56.0641 54.3121C38.2896 71.5312 24.1901 91.9732 14.5706 114.471C4.95109 136.969 -2.19754e-06 161.082 0 185.433L191.415 185.433H382.83Z" fill="#FF4D4D"/>
</svg>
