<svg width="395" height="371" viewBox="0 0 395 371" fill="none" xmlns="http://www.w3.org/2000/svg">
<path d="M0 71.7793H299.086V275.158C299.086 328.015 256.236 370.865 203.378 370.865H95.7074C42.8497 370.865 0 328.015 0 275.158V71.7793Z" fill="#FF7900"/>
<ellipse cx="149.543" cy="65.7989" rx="149.543" ry="65.7989" fill="white"/>
<mask id="mask0_503_125" style="mask-type:alpha" maskUnits="userSpaceOnUse" x="0" y="0" width="300" height="132">
<ellipse cx="149.547" cy="65.7989" rx="149.543" ry="65.7989" fill="white"/>
</mask>
<g mask="url(#mask0_503_125)">
<ellipse cx="149.546" cy="95.7078" rx="137.579" ry="59.8172" fill="#523C11"/>
</g>
<path d="M311.047 119.633C357.297 119.633 394.791 157.126 394.791 203.377C394.791 249.627 357.297 287.121 311.047 287.121C264.796 287.121 227.303 249.627 227.303 203.377C227.303 157.126 264.796 119.633 311.047 119.633ZM311.047 155.522C284.618 155.523 263.193 176.947 263.193 203.376C263.193 229.805 284.618 251.229 311.047 251.229C337.476 251.229 358.9 229.805 358.9 203.376C358.9 176.947 337.476 155.522 311.047 155.522Z" fill="#FF7900"/>
</svg>
