<svg width="503" height="347" viewBox="0 0 503 347" fill="none" xmlns="http://www.w3.org/2000/svg">
<path d="M328.993 0C424.798 0 502.463 77.665 502.463 173.47C502.463 269.274 424.798 346.939 328.993 346.939C301.034 346.939 274.621 340.322 251.231 328.572C227.842 340.322 201.429 346.939 173.47 346.939C77.665 346.939 0 269.274 0 173.47C1.52047e-05 77.665 77.665 1.52086e-05 173.47 0C201.429 0 227.842 6.61674 251.231 18.3662C274.621 6.61673 301.034 4.43838e-06 328.993 0ZM334.977 71.7793C298.942 71.7795 267.559 91.6949 251.232 121.119C234.906 91.695 203.523 71.7793 167.488 71.7793C114.631 71.7795 71.7815 114.629 71.7812 167.486C71.7812 220.344 114.631 263.194 167.488 263.194C168.498 263.194 169.504 263.177 170.506 263.146C171.49 263.177 172.478 263.195 173.47 263.195C175.784 263.195 178.077 263.107 180.347 262.935C180.235 262.75 180.125 262.565 180.015 262.38C210.71 258.367 236.83 239.811 251.232 213.854C265.635 239.81 291.754 258.365 322.447 262.379C322.339 262.56 322.232 262.742 322.123 262.923C324.338 263.103 326.628 263.195 328.993 263.195C329.985 263.195 330.974 263.177 331.958 263.146C332.96 263.177 333.967 263.194 334.977 263.194C387.834 263.194 430.685 220.344 430.685 167.486C430.684 114.629 387.834 71.7793 334.977 71.7793Z" fill="#FF5CA8"/>
<path d="M251.234 305.068C233.289 334.977 191.417 344.946 167.49 346.94H328.997C285.928 342.155 259.21 319.026 251.234 305.068Z" fill="#484848"/>
<path d="M251.234 41.873C233.289 11.9645 191.417 1.99494 167.49 0.0010376H328.997C285.928 4.78641 259.21 27.9157 251.234 41.873Z" fill="#484848"/>
</svg>
