<svg width="309" height="309" viewBox="0 0 309 309" fill="none" xmlns="http://www.w3.org/2000/svg">
<circle cx="154.491" cy="154.491" r="154.491" fill="#FF5CA8"/>
<circle cx="154.491" cy="154.491" r="154.491" fill="#FF5CA8"/>
<mask id="mask0_503_158" style="mask-type:alpha" maskUnits="userSpaceOnUse" x="0" y="0" width="309" height="309">
<circle cx="154.491" cy="154.491" r="154.491" fill="#FF5CA8"/>
</mask>
<g mask="url(#mask0_503_158)">
<path d="M-23.3424 119.81C14.4961 122.537 90.3185 146.094 90.9 218.507C91.4816 290.921 152.956 332.783 183.621 344.662" stroke="#38BDF9" stroke-width="35.8903"/>
<path d="M0 11.9629C11.9634 39.8776 20.2102 77.086 89.7257 89.7252C155.525 101.689 182.837 130.513 203.378 167.487C233.287 221.323 215.342 233.286 287.122 281.14" stroke="#38BDF9" stroke-width="35.8903"/>
<path d="M197.4 -23.9277C187.43 -15.9521 197.404 27.515 221.331 65.798C251.239 113.652 311.059 155.524 323.022 209.359" stroke="#38BDF9" stroke-width="35.8903"/>
</g>
</svg>
