<svg width="440" height="434" viewBox="0 0 440 434" fill="none" xmlns="http://www.w3.org/2000/svg">
<path d="M31.2644 11.4043V120.083C29.5674 139.705 40.4282 178.95 97.4476 178.95C154.467 178.95 158.536 139.528 158.536 120.083V11.4043" stroke="#FF7900" stroke-width="62.2098"/>
<path d="M439.096 31.2644L330.417 31.2644C310.795 29.5674 271.55 40.4282 271.55 97.4476C271.55 154.467 310.972 158.536 330.417 158.536L439.096 158.536" stroke="#38BDF9" stroke-width="62.2098"/>
<path d="M398.814 430.848V322.169C400.511 302.547 389.65 263.302 332.63 263.302C275.611 263.302 271.542 302.724 271.542 322.169V430.848" stroke="#6EE7B7" stroke-width="62.2098"/>
<path d="M3.50586 402.015L112.184 402.015C131.807 403.712 171.052 392.851 171.052 335.832C171.052 278.812 133.689 274.743 112.184 274.743L3.50586 274.743" stroke="#FF4D4D" stroke-width="62.2098"/>
</svg>
