<svg width="482" height="197" viewBox="0 0 482 197" fill="none" xmlns="http://www.w3.org/2000/svg">
<path d="M0.416689 108.331C5.20206 151.399 62.2278 154.191 90.1424 150.203C147.564 223.837 213.766 192.843 239.689 168.142C311.47 215.991 369.293 176.781 389.232 151.195C443.068 170.137 455.031 156.179 472.976 132.252C490.921 108.325 478.958 66.4531 455.031 48.508C435.89 34.1519 403.189 42.5263 389.232 48.508C379.263 34.5511 349.753 5.44043 311.47 0.652556C273.187 -4.13532 243.677 18.5967 233.708 30.5611C224.137 20.9904 201.805 10.6242 191.836 6.6374C134.411 -12.5041 100.113 30.5673 90.1424 54.4956C54.2521 24.5871 -5.56503 54.4956 0.416689 108.331Z" fill="white"/>
</svg>
