<svg width="1298" height="1298" viewBox="0 0 1298 1298" fill="none" xmlns="http://www.w3.org/2000/svg">
<g filter="url(#filter0_d_3195_22709)">
<rect x="136.533" y="85.334" width="1024" height="1024" rx="265" fill="white" shape-rendering="crispEdges"/>
<path d="M578.908 619.28C563.647 613.658 549.591 610.847 536.74 610.847C517.463 610.847 499.793 615.666 483.729 625.304C467.665 634.14 454.814 646.991 445.175 663.858C436.34 679.922 431.922 697.592 431.922 716.869C431.922 735.342 436.34 752.611 445.175 768.675C454.814 784.739 467.665 797.59 483.729 807.229C499.793 816.064 517.463 820.481 536.74 820.481C556.017 820.481 573.285 815.662 588.546 806.024C604.61 796.386 617.461 783.936 627.1 768.675C637.541 752.611 642.762 735.342 642.762 716.869H765.651C765.651 757.029 755.21 794.378 734.327 828.915C714.247 863.453 686.536 891.163 651.196 912.046C616.658 932.929 578.506 943.371 536.74 943.371C494.974 943.371 456.822 933.331 422.284 913.251C387.747 893.171 360.036 865.862 339.153 831.325C319.073 795.984 309.033 757.43 309.033 715.664C309.033 674.701 319.073 636.951 339.153 602.413C360.036 567.072 387.747 539.362 422.284 519.282C456.822 498.399 494.974 487.957 536.74 487.957C564.852 487.957 593.365 493.58 622.28 504.825L578.908 619.28ZM469.271 272.299C523.085 272.299 572.482 285.552 617.461 312.057C663.244 337.759 699.387 373.1 725.893 418.079C752.399 463.058 765.651 512.857 765.651 567.474V784.338C765.651 794.779 768.864 803.614 775.29 810.843C782.518 817.269 790.952 820.481 800.59 820.481C812.638 820.481 821.875 817.269 828.301 810.843C835.53 804.418 839.144 795.582 839.144 784.338V569.884H962.033V784.338C962.033 813.253 954.804 840.16 940.347 865.059C925.889 889.155 906.211 908.432 881.312 922.889C857.216 936.544 830.309 943.371 800.59 943.371C771.675 943.371 745.17 936.544 721.074 922.889C696.978 908.432 677.701 889.155 663.244 865.059C649.589 840.16 642.762 813.253 642.762 784.338V567.474C642.762 535.346 635.132 506.431 619.871 480.729C604.61 454.223 583.727 433.34 557.221 418.079C531.519 402.818 502.202 395.188 469.271 395.188V272.299Z" fill="#6EE7B7"/>
<path d="M962.033 395.299H712.033C718.042 403.578 723.696 412.211 728.993 421.201C757.703 469.92 766.033 522.14 766.033 581.299V728.799H642.533L638.95 583.018C638.95 548.218 630.685 516.899 614.155 489.06C597.626 460.35 575.006 437.731 546.297 421.201C518.457 404.671 486.703 396.406 451.033 396.406V395.299H365.033V263.299H962.033V395.299Z" fill="#38BDF8"/>
</g>
<defs>
<filter id="filter0_d_3195_22709" x="-0.000137329" y="0.000648499" width="1297.07" height="1297.07" filterUnits="userSpaceOnUse" color-interpolation-filters="sRGB">
<feFlood flood-opacity="0" result="BackgroundImageFix"/>
<feColorMatrix in="SourceAlpha" type="matrix" values="0 0 0 0 0 0 0 0 0 0 0 0 0 0 0 0 0 0 127 0" result="hardAlpha"/>
<feOffset dy="51.2"/>
<feGaussianBlur stdDeviation="68.2667"/>
<feComposite in2="hardAlpha" operator="out"/>
<feColorMatrix type="matrix" values="0 0 0 0 0.0588235 0 0 0 0 0.0901961 0 0 0 0 0.164706 0 0 0 0.14 0"/>
<feBlend mode="normal" in2="BackgroundImageFix" result="effect1_dropShadow_3195_22709"/>
<feBlend mode="normal" in="SourceGraphic" in2="effect1_dropShadow_3195_22709" result="shape"/>
</filter>
</defs>
</svg>
