<svg width="28" height="28" viewBox="0 0 28 28" fill="none" xmlns="http://www.w3.org/2000/svg">
<g filter="url(#filter0_d_1680_31596)">
<rect x="2.93311" y="1.83301" width="22" height="22" rx="5.69336" fill="white" shape-rendering="crispEdges"/>
<path d="M12.4372 13.3043C12.1094 13.1835 11.8074 13.1231 11.5313 13.1231C11.1171 13.1231 10.7375 13.2266 10.3924 13.4337C10.0473 13.6235 9.77116 13.8996 9.56409 14.262C9.37427 14.6071 9.27936 14.9868 9.27936 15.4009C9.27936 15.7978 9.37427 16.1688 9.56409 16.5139C9.77116 16.8591 10.0473 17.1352 10.3924 17.3422C10.7375 17.5321 11.1171 17.627 11.5313 17.627C11.9454 17.627 12.3165 17.5234 12.6443 17.3164C12.9894 17.1093 13.2655 16.8418 13.4726 16.5139C13.6969 16.1688 13.8091 15.7978 13.8091 15.4009H16.4493C16.4493 16.2637 16.225 17.0661 15.7763 17.8082C15.3449 18.5502 14.7496 19.1455 13.9903 19.5942C13.2483 20.0428 12.4286 20.2672 11.5313 20.2672C10.634 20.2672 9.8143 20.0515 9.07229 19.6201C8.33027 19.1887 7.73493 18.6019 7.28627 17.8599C6.85486 17.1007 6.63916 16.2724 6.63916 15.375C6.63916 14.495 6.85486 13.6839 7.28627 12.9419C7.73493 12.1826 8.33027 11.5873 9.07229 11.1559C9.8143 10.7072 10.634 10.4829 11.5313 10.4829C12.1353 10.4829 12.7479 10.6037 13.3691 10.8453L12.4372 13.3043ZM10.0818 5.84961C11.2379 5.84961 12.2992 6.13434 13.2655 6.70379C14.2491 7.25599 15.0257 8.01526 15.5951 8.98161C16.1646 9.94796 16.4493 11.0178 16.4493 12.1913V16.8504C16.4493 17.0748 16.5183 17.2646 16.6564 17.4199C16.8117 17.5579 16.9929 17.627 17.2 17.627C17.4588 17.627 17.6572 17.5579 17.7953 17.4199C17.9506 17.2818 18.0283 17.092 18.0283 16.8504V12.243H20.6685V16.8504C20.6685 17.4717 20.5132 18.0497 20.2025 18.5847C19.8919 19.1024 19.4692 19.5165 18.9342 19.8271C18.4165 20.1205 17.8384 20.2672 17.2 20.2672C16.5787 20.2672 16.0093 20.1205 15.4916 19.8271C14.9739 19.5165 14.5598 19.1024 14.2491 18.5847C13.9558 18.0497 13.8091 17.4717 13.8091 16.8504V12.1913C13.8091 11.501 13.6452 10.8798 13.3173 10.3276C12.9894 9.75814 12.5408 9.30948 11.9713 8.98161C11.4191 8.65374 10.7893 8.48981 10.0818 8.48981V5.84961Z" fill="#6EE7B7"/>
<path d="M20.6685 8.49219H15.2925C15.4222 8.67076 15.5473 8.85485 15.6616 9.04883C16.2784 10.0955 16.4575 11.2173 16.4575 12.4883V15.6572H13.8042L13.7271 12.5254C13.7271 11.7779 13.5498 11.1049 13.1948 10.5068C12.8397 9.8901 12.3535 9.40395 11.7368 9.04883C11.1387 8.6937 10.4563 8.51562 9.68994 8.51562V8.49219H7.84229V5.65625H20.6685V8.49219Z" fill="#38BDF8"/>
</g>
<defs>
<filter id="filter0_d_1680_31596" x="-0.000227928" y="-0.000325441" width="27.8667" height="27.8667" filterUnits="userSpaceOnUse" color-interpolation-filters="sRGB">
<feFlood flood-opacity="0" result="BackgroundImageFix"/>
<feColorMatrix in="SourceAlpha" type="matrix" values="0 0 0 0 0 0 0 0 0 0 0 0 0 0 0 0 0 0 127 0" result="hardAlpha"/>
<feOffset dy="1.1"/>
<feGaussianBlur stdDeviation="1.46667"/>
<feComposite in2="hardAlpha" operator="out"/>
<feColorMatrix type="matrix" values="0 0 0 0 0.0588235 0 0 0 0 0.0901961 0 0 0 0 0.164706 0 0 0 0.14 0"/>
<feBlend mode="normal" in2="BackgroundImageFix" result="effect1_dropShadow_1680_31596"/>
<feBlend mode="normal" in="SourceGraphic" in2="effect1_dropShadow_1680_31596" result="shape"/>
</filter>
</defs>
</svg>
