<svg width="77" height="14" viewBox="0 0 77 14" fill="none" xmlns="http://www.w3.org/2000/svg">
<path d="M1.52281 9.89844V0.0984368H2.95081V9.89844H1.52281ZM4.46281 1.52644H-0.00318749V0.0984368H4.46281V1.52644ZM7.14163 8.59644C7.48696 8.59644 7.79963 8.5171 8.07963 8.35844C8.36896 8.19044 8.59296 7.96644 8.75163 7.68644C8.91963 7.3971 9.00363 7.08444 9.00363 6.74844C9.00363 6.41244 8.91963 6.10444 8.75163 5.82444C8.59296 5.5351 8.36896 5.30644 8.07963 5.13844C7.79029 4.97044 7.47763 4.88644 7.14163 4.88644C6.81496 4.88644 6.50696 4.97044 6.21763 5.13844C5.93763 5.30644 5.71363 5.5351 5.54563 5.82444C5.38696 6.10444 5.30763 6.41244 5.30763 6.74844C5.30763 7.09377 5.38696 7.40644 5.54563 7.68644C5.71363 7.96644 5.93763 8.19044 6.21763 8.35844C6.49763 8.5171 6.80563 8.59644 7.14163 8.59644ZM7.14163 10.0244C6.55363 10.0244 6.00763 9.87977 5.50363 9.59044C5.00896 9.29177 4.61229 8.8951 4.31363 8.40044C4.02429 7.89644 3.87963 7.34577 3.87963 6.74844C3.87963 6.16044 4.02429 5.61444 4.31363 5.11044C4.61229 4.60644 5.00896 4.2051 5.50363 3.90644C6.00763 3.60777 6.55363 3.45844 7.14163 3.45844C7.73896 3.45844 8.28963 3.60777 8.79363 3.90644C9.29763 4.2051 9.69429 4.60644 9.98363 5.11044C10.2823 5.61444 10.4316 6.16044 10.4316 6.74844C10.4316 7.34577 10.2823 7.89644 9.98363 8.40044C9.69429 8.8951 9.29763 9.29177 8.79363 9.59044C8.28963 9.87977 7.73896 10.0244 7.14163 10.0244ZM14.28 9.89844V0.0984368H15.708V9.89844H14.28ZM14.98 9.89844H14.14C13.552 9.89844 13.0107 9.75844 12.516 9.47844C12.0307 9.1891 11.648 8.80177 11.368 8.31644C11.088 7.8311 10.948 7.2991 10.948 6.72044C10.948 6.14177 11.088 5.60977 11.368 5.12444C11.6573 4.6391 12.0447 4.25177 12.53 3.96244C13.0153 3.6731 13.552 3.52844 14.14 3.52844H14.98V4.95644H14.14C13.8133 4.95644 13.5147 5.03577 13.244 5.19444C12.9733 5.3531 12.7587 5.56777 12.6 5.83844C12.4507 6.1091 12.376 6.4031 12.376 6.72044C12.376 7.03777 12.4507 7.33177 12.6 7.60244C12.7587 7.8731 12.9733 8.08777 13.244 8.24644C13.5147 8.39577 13.8133 8.47044 14.14 8.47044H14.98V9.89844ZM19.5117 6.23044C19.3344 6.1651 19.1711 6.13244 19.0217 6.13244C18.7977 6.13244 18.5924 6.18844 18.4057 6.30044C18.2191 6.4031 18.0697 6.55244 17.9577 6.74844C17.8551 6.9351 17.8037 7.14044 17.8037 7.36444C17.8037 7.5791 17.8551 7.77977 17.9577 7.96644C18.0697 8.1531 18.2191 8.30244 18.4057 8.41444C18.5924 8.5171 18.7977 8.56844 19.0217 8.56844C19.2457 8.56844 19.4464 8.51244 19.6237 8.40044C19.8104 8.28844 19.9597 8.14377 20.0717 7.96644C20.1931 7.77977 20.2537 7.5791 20.2537 7.36444H21.6817C21.6817 7.8311 21.5604 8.2651 21.3177 8.66644C21.0844 9.06777 20.7624 9.38977 20.3517 9.63244C19.9504 9.8751 19.5071 9.99644 19.0217 9.99644C18.5364 9.99644 18.0931 9.87977 17.6917 9.64644C17.2904 9.4131 16.9684 9.09577 16.7257 8.69444C16.4924 8.28377 16.3757 7.83577 16.3757 7.35044C16.3757 6.87444 16.4924 6.43577 16.7257 6.03444C16.9684 5.62377 17.2904 5.30177 17.6917 5.06844C18.0931 4.82577 18.5364 4.70444 19.0217 4.70444C19.3484 4.70444 19.6797 4.76977 20.0157 4.90044L19.5117 6.23044ZM18.2377 2.19844C18.8631 2.19844 19.4371 2.35244 19.9597 2.66044C20.4917 2.9591 20.9117 3.36977 21.2197 3.89244C21.5277 4.4151 21.6817 4.99377 21.6817 5.62844V7.32244V8.14844C21.6817 8.26977 21.7191 8.37244 21.7937 8.45644C21.8777 8.5311 21.9757 8.56844 22.0877 8.56844C22.2277 8.56844 22.3351 8.5311 22.4097 8.45644C22.4937 8.38177 22.5357 8.2791 22.5357 8.14844V5.65644H23.9637V8.14844C23.9637 8.48444 23.8797 8.7971 23.7117 9.08644C23.5437 9.36644 23.3151 9.59044 23.0257 9.75844C22.7457 9.9171 22.4331 9.99644 22.0877 9.99644C21.7517 9.99644 21.4437 9.9171 21.1637 9.75844C20.8837 9.59044 20.6597 9.36644 20.4917 9.08644C20.3331 8.7971 20.2537 8.48444 20.2537 8.14844V7.32244V5.62844C20.2537 5.2551 20.1651 4.9191 19.9877 4.62044C19.8104 4.31244 19.5677 4.06977 19.2597 3.89244C18.9611 3.7151 18.6204 3.62644 18.2377 3.62644V2.19844ZM25.0573 13.1744L28.7113 3.54244H30.1673L26.5133 13.1744H25.0573ZM26.3033 9.89844L23.8953 3.54244H25.3513L27.7593 9.89844H26.3033ZM31.0305 1.65244C30.8065 1.65244 30.6105 1.5731 30.4425 1.41444C30.2839 1.24644 30.2045 1.05044 30.2045 0.826437C30.2045 0.593104 30.2839 0.397104 30.4425 0.238437C30.6105 0.0797704 30.8065 0.00043726 31.0305 0.00043726C31.2545 0.00043726 31.4459 0.0797704 31.6045 0.238437C31.7632 0.397104 31.8425 0.593104 31.8425 0.826437C31.8425 1.05044 31.7632 1.24644 31.6045 1.41444C31.4459 1.5731 31.2545 1.65244 31.0305 1.65244ZM30.4845 2.88444L31.1145 0.882437L31.7725 1.16244L31.2825 2.88444H30.4845ZM32.4934 8.41444L32.7874 8.62444C32.8808 8.68977 32.9788 8.72244 33.0814 8.72244C33.2121 8.72244 33.3194 8.67577 33.4034 8.58244C33.4968 8.47977 33.5434 8.36777 33.5434 8.24644C33.5434 8.1251 33.4874 8.0271 33.3754 7.95244L32.2834 7.22444C31.7421 6.8511 31.4481 6.3611 31.4014 5.75444C31.3548 5.14777 31.5321 4.6111 31.9334 4.14444C32.3441 3.67777 32.8808 3.44444 33.5434 3.44444C33.7954 3.44444 34.0334 3.48177 34.2574 3.55644C34.4814 3.6311 34.7148 3.74777 34.9574 3.90644L34.2434 4.99844C34.1034 4.9051 33.9821 4.83977 33.8794 4.80244C33.7861 4.7651 33.6741 4.74644 33.5434 4.74644C33.2821 4.74644 33.0674 4.83044 32.8994 4.99844C32.7408 5.16644 32.6661 5.36244 32.6754 5.58644C32.6941 5.81044 32.8061 5.9971 33.0114 6.14644L34.1174 6.88844C34.5561 7.19644 34.7894 7.60244 34.8174 8.10644C34.8548 8.61044 34.7054 9.05377 34.3694 9.43644C34.0428 9.8191 33.6134 10.0104 33.0814 10.0104C32.7174 10.0104 32.3768 9.90777 32.0594 9.70244L31.7654 9.49244L32.4934 8.41444ZM40.6107 9.89844V0.0984368H42.0387V9.89844H40.6107ZM43.5507 1.52644H39.0847V0.0984368H43.5507V1.52644ZM45.6943 3.54244V9.89844H44.2663V3.54244H45.6943ZM45.6943 0.0984368V2.12844H44.2663V0.0984368H45.6943ZM47.8408 0.0984368V9.89844H46.4128V0.0984368H47.8408ZM49.8428 9.89844L46.8608 4.80244C47.3368 5.0731 47.8035 5.16177 48.2608 5.06844C48.7275 4.96577 49.1102 4.73244 49.4088 4.36844C49.7075 3.9951 49.8568 3.57044 49.8568 3.09444H51.2848C51.2848 3.76644 51.1075 4.38244 50.7528 4.94244C50.4075 5.50244 49.9502 5.9271 49.3808 6.21644L51.4948 9.89844H49.8428ZM53.4873 3.54244V9.89844H52.0593V3.54244H53.4873ZM53.4873 0.0984368V2.12844H52.0593V0.0984368H53.4873ZM57.1133 7.15444H54.0893V5.78244H57.1133V7.15444ZM59.5063 1.09244V7.54644C59.5063 7.80777 59.595 8.0271 59.7723 8.20444C59.959 8.38177 60.183 8.47044 60.4443 8.47044H60.5843V9.89844H60.4443C60.015 9.89844 59.6183 9.79577 59.2543 9.59044C58.8997 9.3851 58.615 9.10044 58.4003 8.73644C58.195 8.37244 58.0923 7.97577 58.0923 7.54644V1.09244H59.5063ZM57.3503 3.54244H60.5843V4.95644H57.3503V3.54244ZM64.0547 6.23044C63.8774 6.1651 63.714 6.13244 63.5647 6.13244C63.3407 6.13244 63.1354 6.18844 62.9487 6.30044C62.762 6.4031 62.6127 6.55244 62.5007 6.74844C62.398 6.9351 62.3467 7.14044 62.3467 7.36444C62.3467 7.5791 62.398 7.77977 62.5007 7.96644C62.6127 8.1531 62.762 8.30244 62.9487 8.41444C63.1354 8.5171 63.3407 8.56844 63.5647 8.56844C63.7887 8.56844 63.9894 8.51244 64.1667 8.40044C64.3534 8.28844 64.5027 8.14377 64.6147 7.96644C64.736 7.77977 64.7967 7.5791 64.7967 7.36444H66.2247C66.2247 7.8311 66.1034 8.2651 65.8607 8.66644C65.6274 9.06777 65.3054 9.38977 64.8947 9.63244C64.4934 9.8751 64.05 9.99644 63.5647 9.99644C63.0794 9.99644 62.636 9.87977 62.2347 9.64644C61.8334 9.4131 61.5114 9.09577 61.2687 8.69444C61.0354 8.28377 60.9187 7.83577 60.9187 7.35044C60.9187 6.87444 61.0354 6.43577 61.2687 6.03444C61.5114 5.62377 61.8334 5.30177 62.2347 5.06844C62.636 4.82577 63.0794 4.70444 63.5647 4.70444C63.8914 4.70444 64.2227 4.76977 64.5587 4.90044L64.0547 6.23044ZM62.7807 2.19844C63.406 2.19844 63.98 2.35244 64.5027 2.66044C65.0347 2.9591 65.4547 3.36977 65.7627 3.89244C66.0707 4.4151 66.2247 4.99377 66.2247 5.62844V7.32244V8.14844C66.2247 8.26977 66.262 8.37244 66.3367 8.45644C66.4207 8.5311 66.5187 8.56844 66.6307 8.56844C66.7707 8.56844 66.878 8.5311 66.9527 8.45644C67.0367 8.38177 67.0787 8.2791 67.0787 8.14844V5.65644H68.5067V8.14844C68.5067 8.48444 68.4227 8.7971 68.2547 9.08644C68.0867 9.36644 67.858 9.59044 67.5687 9.75844C67.2887 9.9171 66.976 9.99644 66.6307 9.99644C66.2947 9.99644 65.9867 9.9171 65.7067 9.75844C65.4267 9.59044 65.2027 9.36644 65.0347 9.08644C64.876 8.7971 64.7967 8.48444 64.7967 8.14844V7.32244V5.62844C64.7967 5.2551 64.708 4.9191 64.5307 4.62044C64.3534 4.31244 64.1107 4.06977 63.8027 3.89244C63.504 3.7151 63.1634 3.62644 62.7807 3.62644V2.19844ZM70.6592 0.0984368V9.89844H69.2312V0.0984368H70.6592ZM72.6612 9.89844L69.6792 4.80244C70.1552 5.0731 70.6219 5.16177 71.0792 5.06844C71.5459 4.96577 71.9285 4.73244 72.2272 4.36844C72.5259 3.9951 72.6752 3.57044 72.6752 3.09444H74.1032C74.1032 3.76644 73.9259 4.38244 73.5712 4.94244C73.2259 5.50244 72.7685 5.9271 72.1992 6.21644L74.3132 9.89844H72.6612ZM76.0996 0.0984368V7.61644H74.9796V0.0984368H76.0996ZM75.5396 10.0244C75.3156 10.0244 75.1196 9.9451 74.9516 9.78644C74.7929 9.61844 74.7136 9.42244 74.7136 9.19844C74.7136 8.9651 74.7929 8.7691 74.9516 8.61044C75.1196 8.45177 75.3156 8.37244 75.5396 8.37244C75.7636 8.37244 75.9549 8.45177 76.1136 8.61044C76.2723 8.7691 76.3516 8.9651 76.3516 9.19844C76.3516 9.42244 76.2723 9.61844 76.1136 9.78644C75.9549 9.9451 75.7636 10.0244 75.5396 10.0244Z" fill="white"/>
</svg>
