<svg width="24" height="24" viewBox="0 0 24 24" fill="none" xmlns="http://www.w3.org/2000/svg">
<path d="M20.4292 5.10614V8.78273C20.4292 8.86733 20.3606 8.93592 20.276 8.93592H19.6632V19.6593C19.6632 20.0823 19.3203 20.4253 18.8973 20.4253H5.11004C4.68701 20.4253 4.34408 20.0823 4.34408 19.6593V8.93592H3.73132C3.64671 8.93592 3.57812 8.86733 3.57812 8.78273V5.10613C3.57812 4.26008 4.26399 3.57422 5.11004 3.57422H18.8973C19.7433 3.57422 20.4292 4.26008 20.4292 5.10614Z" fill="currentColor"/>
<path d="M4.34408 8.93592H3.73132C3.64671 8.93592 3.57812 8.86733 3.57812 8.78273V5.10613C3.57812 4.26008 4.26399 3.57422 5.11004 3.57422H18.8973C19.7433 3.57422 20.4292 4.26008 20.4292 5.10614V8.78273C20.4292 8.86733 20.3606 8.93592 20.276 8.93592H19.6632M4.34408 8.93592V19.6593C4.34408 20.0823 4.68701 20.4253 5.11004 20.4253H18.8973C19.3203 20.4253 19.6632 20.0824 19.6632 19.6593V8.93592M4.34408 8.93592H19.6632" stroke="currentColor" stroke-width="1.5"/>
<path d="M9.70312 12.7656H14.2989" stroke="white" stroke-width="1.5" stroke-linecap="round"/>
</svg>
