<svg width="24" height="24" viewBox="0 0 24 24" fill="none" xmlns="http://www.w3.org/2000/svg">
<path d="M10.7116 5.86461L4.34218 16.4979C4.21085 16.7253 4.14137 16.9832 4.14063 17.2458C4.1399 17.5084 4.20794 17.7666 4.33798 17.9948C4.46803 18.2229 4.65555 18.413 4.88189 18.5462C5.10823 18.6794 5.3655 18.751 5.6281 18.7539H18.367C18.6296 18.751 18.8868 18.6794 19.1132 18.5462C19.3395 18.413 19.527 18.2229 19.6571 17.9948C19.7871 17.7666 19.8552 17.5084 19.8544 17.2458C19.8537 16.9832 19.7842 16.7253 19.6529 16.4979L13.2835 5.86461C13.1494 5.6436 12.9606 5.46087 12.7354 5.33406C12.5102 5.20725 12.256 5.14062 11.9975 5.14062C11.739 5.14062 11.4849 5.20725 11.2597 5.33406C11.0344 5.46087 10.8457 5.6436 10.7116 5.86461Z" stroke="currentColor" stroke-width="1.316" stroke-linecap="round" stroke-linejoin="round"/>
<path d="M12 9.80078V13.0008" stroke="currentColor" stroke-width="1.4" stroke-linecap="round" stroke-linejoin="round"/>
<path d="M12 16.1992H12.008" stroke="currentColor" stroke-width="1.6" stroke-linecap="round" stroke-linejoin="round"/>
</svg>
