<svg viewBox="0 0 34 34" fill="none" xmlns="http://www.w3.org/2000/svg">
<path d="M16.8039 14.0039C16.0613 14.0039 15.3491 14.2989 14.824 14.824C14.2989 15.3491 14.0039 16.0613 14.0039 16.8039C14.0039 17.5465 14.2989 18.2587 14.824 18.7838C15.3491 19.3089 16.0613 19.6039 16.8039 19.6039C17.5465 19.6039 18.2587 19.3089 18.7838 18.7838C19.3089 18.2587 19.6039 17.5465 19.6039 16.8039C19.6039 16.0613 19.3089 15.3491 18.7838 14.824C18.2587 14.2989 17.5465 14.0039 16.8039 14.0039Z" fill="white"/>
<path d="M28.0053 7.0008H24.3793L20.5853 3.2068C20.4545 3.07705 20.2994 2.9744 20.1288 2.90472C19.9582 2.83505 19.7756 2.79974 19.5913 2.8008H13.9913C13.6133 2.8008 13.2633 2.9548 12.9973 3.2068L9.20334 7.0008H5.57734C4.03734 7.0008 2.77734 8.2608 2.77734 9.8008V25.2008C2.77734 26.7408 4.03734 28.0008 5.57734 28.0008H27.9773C29.5173 28.0008 30.7773 26.7408 30.7773 25.2008V9.8008C30.7773 8.2608 29.5173 7.0008 27.9773 7.0008H28.0053ZM16.8053 22.4008C13.7673 22.4008 11.2053 19.8388 11.2053 16.8008C11.2053 13.7628 13.7673 11.2008 16.8053 11.2008C19.8433 11.2008 22.4053 13.7628 22.4053 16.8008C22.4053 19.8388 19.8433 22.4008 16.8053 22.4008Z" fill="white"/>
</svg>
