<svg width="28" height="28" viewBox="0 0 28 28" fill="none" xmlns="http://www.w3.org/2000/svg">
<rect width="28" height="28" rx="14" fill="#1E1F1F" fill-opacity="0.6"/>
<path d="M21.1943 8.41714C21.6393 7.97216 21.6393 7.2507 21.1943 6.80571C20.7493 6.36073 20.0278 6.36073 19.5829 6.80571L14 12.3886L8.41714 6.80572C7.97216 6.36073 7.2507 6.36073 6.80571 6.80571C6.36073 7.2507 6.36073 7.97216 6.80571 8.41714L12.3886 14L6.80571 19.5829C6.36073 20.0278 6.36073 20.7493 6.80571 21.1943C7.2507 21.6393 7.97216 21.6393 8.41714 21.1943L14 15.6114L19.5829 21.1943C20.0278 21.6393 20.7493 21.6393 21.1943 21.1943C21.6393 20.7493 21.6393 20.0278 21.1943 19.5829L15.6114 14L21.1943 8.41714Z" fill="white"/>
</svg>
