<svg width="36" height="36" viewBox="0 0 36 36" fill="none" xmlns="http://www.w3.org/2000/svg">
<rect width="36" height="36" rx="18" fill="#1E1F1F" fill-opacity="0.6"/>
<path d="M26.0936 11.7193C26.5942 11.2187 26.5942 10.407 26.0936 9.90643C25.593 9.40582 24.7813 9.40582 24.2807 9.90643L18 16.1871L11.7193 9.90643C11.2187 9.40582 10.407 9.40582 9.90643 9.90643C9.40582 10.407 9.40582 11.2187 9.90643 11.7193L16.1871 18L9.90643 24.2807C9.40582 24.7813 9.40582 25.593 9.90643 26.0936C10.407 26.5942 11.2187 26.5942 11.7193 26.0936L18 19.8129L24.2807 26.0936C24.7813 26.5942 25.593 26.5942 26.0936 26.0936C26.5942 25.593 26.5942 24.7813 26.0936 24.2807L19.8129 18L26.0936 11.7193Z" fill="white"/>
</svg>
