<svg width="36" height="36" viewBox="0 0 36 36" fill="none" xmlns="http://www.w3.org/2000/svg">
<rect width="36" height="36" rx="18" fill="#1E1F1F" fill-opacity="0.6"/>
<path d="M27.2504 10.8226C27.8225 10.2505 27.8225 9.32288 27.2504 8.75076C26.6782 8.17864 25.7506 8.17864 25.1785 8.75076L18.0006 15.9287L10.8226 8.75076C10.2505 8.17864 9.32288 8.17864 8.75076 8.75076C8.17864 9.32288 8.17864 10.2505 8.75076 10.8226L15.9287 18.0006L8.75076 25.1785C8.17864 25.7506 8.17864 26.6782 8.75076 27.2504C9.32288 27.8225 10.2505 27.8225 10.8226 27.2504L18.0006 20.0724L25.1785 27.2504C25.7506 27.8225 26.6782 27.8225 27.2504 27.2504C27.8225 26.6782 27.8225 25.7506 27.2504 25.1785L20.0724 18.0006L27.2504 10.8226Z" fill="white"/>
</svg>
