<svg width="16" height="16" viewBox="0 0 16 16" fill="none" xmlns="http://www.w3.org/2000/svg">
<path d="M14.7216 1.94449C15.1666 1.4995 15.1666 0.778042 14.7216 0.333059C14.2766 -0.111925 13.5552 -0.111926 13.1102 0.333058L7.52734 5.91592L1.94449 0.333059C1.4995 -0.111925 0.778042 -0.111926 0.333058 0.333058C-0.111926 0.778042 -0.111926 1.4995 0.333058 1.94449L5.91592 7.52734L0.333057 13.1102C-0.111927 13.5552 -0.111925 14.2766 0.333059 14.7216C0.778042 15.1666 1.4995 15.1666 1.94449 14.7216L7.52734 9.13877L13.1102 14.7216C13.5552 15.1666 14.2766 15.1666 14.7216 14.7216C15.1666 14.2766 15.1666 13.5552 14.7216 13.1102L9.13877 7.52734L14.7216 1.94449Z" fill="currentColor"/>
</svg>
