<svg width="17" height="17" viewBox="0 0 17 17" fill="none" xmlns="http://www.w3.org/2000/svg">
<path d="M16.5623 2.18804C17.0629 1.68743 17.0629 0.875785 16.5623 0.375179C16.0617 -0.125428 15.2501 -0.125428 14.7495 0.375179L8.46875 6.65589L2.18804 0.375179C1.68743 -0.125428 0.875785 -0.125428 0.375179 0.375179C-0.125428 0.875785 -0.125428 1.68743 0.375178 2.18804L6.65589 8.46875L0.375179 14.7495C-0.125428 15.2501 -0.125428 16.0617 0.375179 16.5623C0.875785 17.0629 1.68743 17.0629 2.18804 16.5623L8.46875 10.2816L14.7495 16.5623C15.2501 17.0629 16.0617 17.0629 16.5623 16.5623C17.0629 16.0617 17.0629 15.2501 16.5623 14.7495L10.2816 8.46875L16.5623 2.18804Z" fill="white"/>
</svg>
