<svg viewBox="0 0 20 20" fill="none" xmlns="http://www.w3.org/2000/svg">
<path d="M14.1667 8.05551C14.1667 7.46606 13.9326 6.90076 13.5158 6.48396C13.099 6.06716 12.5337 5.83301 11.9442 5.83301H4.72258C4.43072 5.83301 4.14171 5.89049 3.87207 6.00219C3.60242 6.11388 3.35741 6.27758 3.15104 6.48396C2.94466 6.69034 2.78095 6.93535 2.66926 7.20499C2.55757 7.47464 2.50008 7.76364 2.50008 8.05551V15.2772C2.50008 15.569 2.55757 15.858 2.66926 16.1277C2.78095 16.3973 2.94466 16.6423 3.15104 16.8487C3.35741 17.0551 3.60242 17.2188 3.87207 17.3305C4.14171 17.4422 4.43072 17.4997 4.72258 17.4997H11.9442C12.2361 17.4997 12.5251 17.4422 12.7948 17.3305C13.0644 17.2188 13.3094 17.0551 13.5158 16.8487C13.7222 16.6423 13.8859 16.3973 13.9976 16.1277C14.1093 15.858 14.1667 15.569 14.1667 15.2772V8.05551Z" stroke="currentColor" stroke-width="1.25" stroke-linecap="round" stroke-linejoin="round"/>
<path d="M16.6567 13.9475C16.9125 13.8021 17.1253 13.5916 17.2734 13.3374C17.4215 13.0832 17.4997 12.7942 17.5 12.5V4.16667C17.5 3.25 16.75 2.5 15.8333 2.5H7.5C6.875 2.5 6.535 2.82083 6.25 3.33333" stroke="currentColor" stroke-width="1.25" stroke-linecap="round" stroke-linejoin="round"/>
</svg>
