<svg width="243" height="243" viewBox="0 0 243 243" fill="none" xmlns="http://www.w3.org/2000/svg">
<g filter="url(#filter0_dii_1354_15703)">
<circle cx="121.332" cy="121.334" r="28" fill="#38BDF8"/>
</g>
<path d="M121.85 109.58C122.54 109.58 123.1 110.14 123.1 110.83V120.611H132.896C133.587 120.611 134.146 121.171 134.146 121.861C134.146 122.552 133.587 123.111 132.896 123.111H123.1V132.902C123.1 133.593 122.54 134.152 121.85 134.152C121.159 134.152 120.6 133.593 120.6 132.902V123.111H110.824C110.134 123.111 109.574 122.552 109.574 121.861C109.574 121.171 110.134 120.611 110.824 120.611H120.6V110.83C120.6 110.14 121.159 109.58 121.85 109.58Z" fill="white"/>
<defs>
<filter id="filter0_dii_1354_15703" x="-0.00131226" y="0.000640869" width="242.667" height="242.667" filterUnits="userSpaceOnUse" color-interpolation-filters="sRGB">
<feFlood flood-opacity="0" result="BackgroundImageFix"/>
<feColorMatrix in="SourceAlpha" type="matrix" values="0 0 0 0 0 0 0 0 0 0 0 0 0 0 0 0 0 0 127 0" result="hardAlpha"/>
<feOffset/>
<feGaussianBlur stdDeviation="46.6667"/>
<feComposite in2="hardAlpha" operator="out"/>
<feColorMatrix type="matrix" values="0 0 0 0 0 0 0 0 0 0 0 0 0 0 0 0 0 0 0.03 0"/>
<feBlend mode="normal" in2="BackgroundImageFix" result="effect1_dropShadow_1354_15703"/>
<feBlend mode="normal" in="SourceGraphic" in2="BackgroundImageFix" result="shape"/>
<feColorMatrix in="SourceAlpha" type="matrix" values="0 0 0 0 0 0 0 0 0 0 0 0 0 0 0 0 0 0 127 0" result="hardAlpha"/>
<feOffset/>
<feGaussianBlur stdDeviation="2.91667"/>
<feComposite in2="hardAlpha" operator="arithmetic" k2="-1" k3="1"/>
<feColorMatrix type="matrix" values="0 0 0 0 1 0 0 0 0 1 0 0 0 0 1 0 0 0 0.1 0"/>
<feBlend mode="normal" in2="shape" result="effect2_innerShadow_1354_15703"/>
<feColorMatrix in="SourceAlpha" type="matrix" values="0 0 0 0 0 0 0 0 0 0 0 0 0 0 0 0 0 0 127 0" result="hardAlpha"/>
<feOffset/>
<feGaussianBlur stdDeviation="1.63333"/>
<feComposite in2="hardAlpha" operator="arithmetic" k2="-1" k3="1"/>
<feColorMatrix type="matrix" values="0 0 0 0 1 0 0 0 0 1 0 0 0 0 1 0 0 0 0.3 0"/>
<feBlend mode="normal" in2="effect2_innerShadow_1354_15703" result="effect3_innerShadow_1354_15703"/>
<feBlend mode="normal" in="effect3_innerShadow_1354_15703" in2="effect1_dropShadow_1354_15703" result="effect3_innerShadow_1354_15703"/>
</filter>
</defs>
</svg>
