<svg width="24" height="24" viewBox="0 0 24 24" fill="none" xmlns="http://www.w3.org/2000/svg">
<path d="M8.3966 7.11078C8.10362 6.81781 8.10374 6.34277 8.39685 6.04994C8.68972 5.75734 9.1643 5.75741 9.4571 6.0501L14.706 11.2972C14.7992 11.3898 14.8731 11.4999 14.9236 11.6211C14.974 11.7424 15 11.8724 15 12.0037C15 12.1351 14.974 12.2651 14.9236 12.3863C14.8731 12.5076 14.7992 12.6177 14.706 12.7102L9.45705 17.9601C9.16435 18.2529 8.68973 18.2529 8.397 17.9602C8.10431 17.6675 8.10429 17.193 8.39695 16.9002L13.291 12.0052L8.3966 7.11078Z" fill="currentColor"/>
</svg>
