<svg width="64" height="64" viewBox="0 0 64 64" fill="none" xmlns="http://www.w3.org/2000/svg">
<mask id="mask0_2107_16933" style="mask-type:alpha" maskUnits="userSpaceOnUse" x="5" y="6" width="35" height="32">
<path d="M25 26.5L24 35.5L6 37.5L5 28.5L10 9L22.5 6L39.5 9L37 28.5L32.5 28L30 23.5L26.5 24.5L25 26.5Z" fill="#D9D9D9"/>
</mask>
<g mask="url(#mask0_2107_16933)">
<circle cx="23" cy="21.5" r="10" fill="#686868" stroke="white" stroke-width="3"/>
</g>
<path d="M44.1778 36.3438C43.2481 36.3427 42.333 36.5749 41.5163 37.0191C41.2722 36.2639 40.8698 35.5694 40.3359 34.9821C39.802 34.3948 39.1489 33.9282 38.4203 33.6135C37.6916 33.2988 36.9042 33.1432 36.1107 33.1571C35.3171 33.171 34.5356 33.3541 33.8185 33.6941V27.5781C33.8185 26.0987 33.2308 24.6799 32.1847 23.6338C31.1386 22.5877 29.7197 22 28.2403 22C26.7609 22 25.3421 22.5877 24.296 23.6338C23.2499 24.6799 22.6622 26.0987 22.6622 27.5781V43.5156L21.9012 42.2944C21.157 41.0155 19.9352 40.0846 18.5047 39.7065C17.0741 39.3284 15.552 39.5341 14.2731 40.2783C12.9942 41.0225 12.0633 42.2443 11.6852 43.6748C11.3071 45.1054 11.5128 46.6275 12.257 47.9064L18.0981 57.8673C18.1961 58.0613 18.3327 58.2333 18.4995 58.3725C18.6664 58.5118 18.86 58.6155 19.0683 58.6772C19.2767 58.7388 19.4955 58.7573 19.7113 58.7313C19.9271 58.7053 20.1353 58.6355 20.3231 58.5261C20.5109 58.4166 20.6743 58.27 20.8033 58.0951C20.9323 57.9202 21.0242 57.7208 21.0733 57.509C21.1224 57.2973 21.1277 57.0778 21.0888 56.864C21.05 56.6501 20.9678 56.4465 20.8473 56.2656L15.0122 46.3047C14.8484 46.0326 14.7404 45.7306 14.6946 45.4163C14.6488 45.102 14.6661 44.7817 14.7455 44.4742C14.8249 44.1667 14.9647 43.878 15.1569 43.6251C15.3491 43.3723 15.5897 43.1602 15.8648 43.0014C16.1398 42.8426 16.4437 42.7401 16.7588 42.7001C17.0739 42.66 17.3938 42.6832 17.6998 42.7681C18.0059 42.8531 18.2919 42.9982 18.5412 43.195C18.7906 43.3917 18.9982 43.6362 19.152 43.9141L19.1799 43.9599L22.9013 49.9364C23.084 50.2313 23.3579 50.4584 23.6814 50.5835C24.0049 50.7085 24.3604 50.7246 24.6939 50.6293C25.0274 50.534 25.3207 50.3325 25.5293 50.0553C25.7379 49.7782 25.8504 49.4406 25.8497 49.0938V27.5781C25.8497 26.9441 26.1016 26.336 26.5499 25.8877C26.9982 25.4394 27.6063 25.1875 28.2403 25.1875C28.8744 25.1875 29.4824 25.4394 29.9308 25.8877C30.3791 26.336 30.631 26.9441 30.631 27.5781V41.125C30.631 41.5477 30.7989 41.9531 31.0978 42.252C31.3966 42.5508 31.802 42.7188 32.2247 42.7188C32.6474 42.7188 33.0528 42.5508 33.3517 42.252C33.6505 41.9531 33.8185 41.5477 33.8185 41.125V38.7344C33.8185 38.1003 34.0703 37.4923 34.5187 37.0439C34.967 36.5956 35.575 36.3438 36.2091 36.3438C36.8431 36.3438 37.4512 36.5956 37.8995 37.0439C38.3478 37.4923 38.5997 38.1003 38.5997 38.7344V42.7188C38.5997 43.1414 38.7676 43.5468 39.0665 43.8457C39.3654 44.1446 39.7708 44.3125 40.1935 44.3125C40.6161 44.3125 41.0215 44.1446 41.3204 43.8457C41.6193 43.5468 41.7872 43.1414 41.7872 42.7188V41.9219C41.7872 41.2878 42.0391 40.6798 42.4874 40.2315C42.9357 39.7831 43.5438 39.5313 44.1778 39.5313C44.8119 39.5313 45.4199 39.7831 45.8683 40.2315C46.3166 40.6798 46.5685 41.2878 46.5685 41.9219V49.0938C46.5685 53.3989 45.154 56.3254 45.142 56.3493C44.9532 56.7274 44.9223 57.1649 45.0561 57.5658C45.1898 57.9666 45.4773 58.298 45.8553 58.4869C46.0763 58.5987 46.3207 58.6567 46.5685 58.6563C46.8645 58.6565 47.1548 58.5742 47.4068 58.4187C47.6587 58.2631 47.8624 58.0405 47.9949 57.7757C48.0686 57.6303 49.7579 54.1898 49.7579 49.0938V41.9219C49.7579 41.1892 49.6136 40.4637 49.3331 39.7868C49.0527 39.1099 48.6416 38.4948 48.1234 37.9768C47.6053 37.4588 46.9901 37.048 46.3131 36.7678C45.6361 36.4876 44.9105 36.3435 44.1778 36.3438Z" fill="white"/>
</svg>
