<svg width="24" height="24" viewBox="0 0 24 24" fill="none" xmlns="http://www.w3.org/2000/svg">
<path d="M12.0723 3.75879C12.0784 3.76104 12.1023 3.77235 12.1572 3.80762C12.2416 3.86179 12.3493 3.94068 12.5332 4.07812L19.3154 9.14746C19.8034 9.51214 19.928 9.61337 20.0137 9.72461C20.1019 9.83933 20.1669 9.96729 20.2061 10.1016C20.2431 10.2288 20.25 10.3782 20.25 10.9736V17.9248C20.25 18.4758 20.2495 18.8427 20.2256 19.124C20.2025 19.3956 20.1613 19.52 20.1191 19.5996C20.0034 19.8177 19.8158 20.0008 19.5781 20.1172C19.4849 20.1628 19.3439 20.2039 19.0547 20.2266C18.7574 20.2499 18.3716 20.25 17.7998 20.25H14.5996C14.5821 20.25 14.5655 20.249 14.5498 20.249V15.3955C14.5498 15.223 14.5515 15.0268 14.5312 14.8584C14.5112 14.6919 14.4651 14.4987 14.3467 14.3096L14.291 14.2285L14.2109 14.1299C14.0699 13.9729 13.8988 13.8525 13.7188 13.7637L13.5 13.6719L13.334 13.6299C13.2828 13.6205 13.2385 13.6147 13.21 13.6113C13.1317 13.602 13.0436 13.5945 12.958 13.5889C12.7857 13.5776 12.59 13.5711 12.4287 13.5664C12.3808 13.565 12.3349 13.5635 12.293 13.5625C12.2874 13.5618 12.2819 13.5611 12.2764 13.5605L12.2002 13.5566H11.7998C11.5283 13.5566 11.2939 13.5557 11.1016 13.5664C10.9059 13.5773 10.7025 13.6017 10.5 13.6719C10.2421 13.7613 9.98644 13.9102 9.78906 14.1299L9.70898 14.2285C9.54867 14.4426 9.49164 14.668 9.46875 14.8584C9.44853 15.0268 9.4502 15.223 9.4502 15.3955V20.2314C9.4502 20.2374 9.44922 20.2433 9.44922 20.249C9.43381 20.249 9.41758 20.25 9.40039 20.25H6.2002C5.6284 20.25 5.24262 20.2499 4.94531 20.2266C4.65605 20.2039 4.51513 20.1628 4.42188 20.1172C4.18421 20.0008 3.9966 19.8177 3.88086 19.5996C3.83866 19.52 3.79751 19.3956 3.77441 19.124C3.75049 18.8427 3.75 18.4758 3.75 17.9248V10.9736C3.75 10.3782 3.75694 10.2288 3.79395 10.1016C3.83306 9.96729 3.89806 9.83934 3.98633 9.72461C4.07195 9.61337 4.1966 9.51214 4.68457 9.14746L11.4668 4.07812C11.6507 3.94067 11.7584 3.86179 11.8428 3.80762C11.8977 3.77235 11.9216 3.76104 11.9277 3.75879C11.9748 3.7466 12.0252 3.74659 12.0723 3.75879Z" stroke="currentColor" stroke-width="1.5" stroke-linecap="round" stroke-linejoin="round"/>
</svg>
