<svg width="24" height="24" viewBox="0 0 24 24" fill="none" xmlns="http://www.w3.org/2000/svg">
<path d="M12 17C13.1046 17 14 17.8954 14 19C14 20.1046 13.1046 21 12 21H5C3.89543 21 3 20.1046 3 19C3 17.8954 3.89543 17 5 17H12Z" fill="currentColor"/>
<path d="M19 17C20.1046 17 21 17.8954 21 19C21 20.1046 20.1046 21 19 21H18C16.8954 21 16 20.1046 16 19C16 17.8954 16.8954 17 18 17H19Z" fill="currentColor"/>
<path d="M12 10C13.1046 10 14 10.8954 14 12C14 13.1046 13.1046 14 12 14H5C3.89543 14 3 13.1046 3 12C3 10.8954 3.89543 10 5 10H12Z" fill="currentColor"/>
<path d="M19 10C20.1046 10 21 10.8954 21 12C21 13.1046 20.1046 14 19 14H18C16.8954 14 16 13.1046 16 12C16 10.8954 16.8954 10 18 10H19Z" fill="currentColor"/>
<path d="M12 3C13.1046 3 14 3.89543 14 5C14 6.10457 13.1046 7 12 7H5C3.89543 7 3 6.10457 3 5C3 3.89543 3.89543 3 5 3H12Z" fill="currentColor"/>
<path d="M19 3C20.1046 3 21 3.89543 21 5C21 6.10457 20.1046 7 19 7H18C16.8954 7 16 6.10457 16 5C16 3.89543 16.8954 3 18 3H19Z" fill="currentColor"/>
</svg>
