<svg width="20" height="20" viewBox="0 0 20 20" fill="none" xmlns="http://www.w3.org/2000/svg">
<path d="M16.6654 8.33464C16.6654 12.4955 12.0495 16.8288 10.4995 18.1671C10.3551 18.2757 10.1794 18.3344 9.9987 18.3344C9.81803 18.3344 9.64226 18.2757 9.49786 18.1671C7.94786 16.8288 3.33203 12.4955 3.33203 8.33464C3.33203 6.56653 4.03441 4.87083 5.28465 3.62059C6.5349 2.37035 8.23059 1.66797 9.9987 1.66797C11.7668 1.66797 13.4625 2.37035 14.7127 3.62059C15.963 4.87083 16.6654 6.56653 16.6654 8.33464Z" stroke="currentColor" stroke-width="1.5" stroke-linecap="round" stroke-linejoin="round"/>
<path d="M10 10.832C11.3807 10.832 12.5 9.71274 12.5 8.33203C12.5 6.95132 11.3807 5.83203 10 5.83203C8.61929 5.83203 7.5 6.95132 7.5 8.33203C7.5 9.71274 8.61929 10.832 10 10.832Z" stroke="currentColor" stroke-width="1.5" stroke-linecap="round" stroke-linejoin="round"/>
</svg>
