<svg viewBox="0 0 16 4" fill="none" xmlns="http://www.w3.org/2000/svg">
<path d="M0.890625 1.77756C0.890625 2.01331 0.984276 2.2394 1.15097 2.4061C1.31767 2.5728 1.54377 2.66645 1.77951 2.66645C2.01526 2.66645 2.24135 2.5728 2.40805 2.4061C2.57475 2.2394 2.6684 2.01331 2.6684 1.77756C2.6684 1.54181 2.57475 1.31572 2.40805 1.14902C2.24135 0.982323 2.01526 0.888672 1.77951 0.888672C1.54377 0.888672 1.31767 0.982323 1.15097 1.14902C0.984276 1.31572 0.890625 1.54181 0.890625 1.77756ZM7.11285 1.77756C7.11285 2.01331 7.2065 2.2394 7.3732 2.4061C7.5399 2.5728 7.76599 2.66645 8.00174 2.66645C8.23748 2.66645 8.46358 2.5728 8.63028 2.4061C8.79697 2.2394 8.89063 2.01331 8.89063 1.77756C8.89063 1.54181 8.79697 1.31572 8.63028 1.14902C8.46358 0.982323 8.23748 0.888672 8.00174 0.888672C7.76599 0.888672 7.5399 0.982323 7.3732 1.14902C7.2065 1.31572 7.11285 1.54181 7.11285 1.77756ZM13.3351 1.77756C13.3351 2.01331 13.4287 2.2394 13.5954 2.4061C13.7621 2.5728 13.9882 2.66645 14.224 2.66645C14.4597 2.66645 14.6858 2.5728 14.8525 2.4061C15.0192 2.2394 15.1128 2.01331 15.1128 1.77756C15.1128 1.54181 15.0192 1.31572 14.8525 1.14902C14.6858 0.982323 14.4597 0.888672 14.224 0.888672C13.9882 0.888672 13.7621 0.982323 13.5954 1.14902C13.4287 1.31572 13.3351 1.54181 13.3351 1.77756Z" stroke="currentColor" stroke-width="1.77778" stroke-linecap="round" stroke-linejoin="round"/>
</svg>
