<svg width="20" height="20" viewBox="0 0 20 20" fill="none" xmlns="http://www.w3.org/2000/svg">
<path d="M10.0026 13.1263C10.2789 13.1263 10.5438 13.236 10.7392 13.4314C10.9345 13.6268 11.0443 13.8917 11.0443 14.168C11.0443 14.4442 10.9345 14.7092 10.7392 14.9045C10.5438 15.0999 10.2789 15.2096 10.0026 15.2096C9.72634 15.2096 9.46138 15.0999 9.26603 14.9045C9.07068 14.7092 8.96094 14.4442 8.96094 14.168C8.96094 13.8917 9.07068 13.6268 9.26603 13.4314C9.46138 13.236 9.72634 13.1263 10.0026 13.1263ZM10.0026 8.95964C10.2789 8.95964 10.5438 9.06938 10.7392 9.26473C10.9345 9.46008 11.0443 9.72504 11.0443 10.0013C11.0443 10.2776 10.9345 10.5425 10.7392 10.7379C10.5438 10.9332 10.2789 11.043 10.0026 11.043C9.72634 11.043 9.46138 10.9332 9.26603 10.7379C9.07068 10.5425 8.96094 10.2776 8.96094 10.0013C8.96094 9.72504 9.07068 9.46008 9.26603 9.26473C9.46138 9.06938 9.72634 8.95964 10.0026 8.95964ZM10.0026 4.79297C10.2789 4.79297 10.5438 4.90272 10.7392 5.09807C10.9345 5.29342 11.0443 5.55837 11.0443 5.83464C11.0443 6.1109 10.9345 6.37585 10.7392 6.57121C10.5438 6.76656 10.2789 6.8763 10.0026 6.8763C9.72634 6.8763 9.46138 6.76656 9.26603 6.57121C9.07068 6.37585 8.96094 6.1109 8.96094 5.83464C8.96094 5.55837 9.07068 5.29342 9.26603 5.09807C9.46138 4.90272 9.72634 4.79297 10.0026 4.79297Z" fill="currentColor"/>
</svg>
