<svg viewBox="0 0 16 16" fill="none" xmlns="http://www.w3.org/2000/svg">
<path d="M9.36419 2.35551L13.0175 6.00886M0.6875 14.6855H4.34084L13.9309 5.09552C14.1708 4.85564 14.361 4.57086 14.4909 4.25744C14.6207 3.94402 14.6875 3.60809 14.6875 3.26885C14.6875 2.92961 14.6207 2.59368 14.4909 2.28026C14.361 1.96684 14.1708 1.68206 13.9309 1.44218C13.691 1.2023 13.4062 1.01201 13.0928 0.882189C12.7794 0.752366 12.4434 0.685547 12.1042 0.685547C11.765 0.685547 11.429 0.752366 11.1156 0.882189C10.8022 1.01201 10.5174 1.2023 10.2775 1.44218L0.6875 11.0322V14.6855Z" stroke="currentColor" stroke-width="1.37" stroke-linecap="round" stroke-linejoin="round"/>
</svg>
