<svg width="24" height="24" viewBox="0 0 24 24" fill="none" xmlns="http://www.w3.org/2000/svg">
<path d="M13.3408 7.00591L16.9941 10.6592M4.66406 19.3359H8.31741L17.9074 9.74591C18.1473 9.50603 18.3376 9.22125 18.4674 8.90783C18.5972 8.59441 18.6641 8.25849 18.6641 7.91924C18.6641 7.58 18.5972 7.24407 18.4674 6.93065C18.3376 6.61723 18.1473 6.33245 17.9074 6.09257C17.6675 5.85269 17.3828 5.6624 17.0693 5.53258C16.7559 5.40276 16.42 5.33594 16.0808 5.33594C15.7415 5.33594 15.4056 5.40276 15.0922 5.53258C14.7788 5.6624 14.494 5.85269 14.2541 6.09257L4.66406 15.6826V19.3359Z" stroke="black" stroke-width="1.37" stroke-linecap="round" stroke-linejoin="round"/>
</svg>
