<svg width="36" height="36" viewBox="0 0 36 36" fill="none" xmlns="http://www.w3.org/2000/svg">
<rect width="36" height="36" rx="18" fill="#1E1F1F" fill-opacity="0.6"/>
<path d="M24.5681 7.71484C25.5532 7.71484 26.4979 8.10617 27.1945 8.80273C27.891 9.4993 28.2824 10.444 28.2824 11.4291V19.2908C28.2821 19.9724 28.0112 20.626 27.5292 21.108L21.1052 27.5331C20.8664 27.7719 20.583 27.9613 20.271 28.0905C19.959 28.2198 19.6246 28.2863 19.2869 28.2863H11.4252C10.4401 28.2863 9.49539 27.8949 8.79883 27.1984C8.10226 26.5018 7.71094 25.5571 7.71094 24.572V11.4291C7.71094 10.444 8.10226 9.4993 8.79883 8.80273C9.49539 8.10617 10.4401 7.71484 11.4252 7.71484H24.5681ZM24.5681 9.42913H11.4252C10.8948 9.42913 10.3861 9.63984 10.011 10.0149C9.63594 10.39 9.42522 10.8987 9.42522 11.4291V24.572C9.42522 25.676 10.3212 26.572 11.4252 26.572H19.1395V23.0703C18.8845 23.1078 18.6278 23.133 18.3704 23.1457L17.9967 23.1548C16.4942 23.1676 15.0251 22.7122 13.7932 21.852C13.6062 21.7226 13.4783 21.5241 13.4375 21.3004C13.4174 21.1896 13.4192 21.0759 13.443 20.9658C13.4668 20.8558 13.512 20.7514 13.5761 20.6588C13.6402 20.5662 13.7219 20.4872 13.8165 20.4261C13.9111 20.3651 14.0169 20.3233 14.1277 20.3032C14.3514 20.2624 14.5822 20.3123 14.7692 20.4417C15.7338 21.1091 16.8035 21.4406 17.9967 21.4406C18.5247 21.4406 19.029 21.3754 19.5098 21.2451C19.7951 20.653 20.2325 20.1472 20.7772 19.7794C21.3219 19.4115 21.9545 19.1949 22.6104 19.1514L22.8538 19.1434H26.5681V11.4291C26.5681 10.8987 26.3574 10.39 25.9823 10.0149C25.6072 9.63984 25.0985 9.42913 24.5681 9.42913ZM25.3555 20.8577H22.8549C22.3528 20.8577 21.8691 21.0467 21.4998 21.3869C21.1306 21.7271 20.9028 22.1938 20.8618 22.6943L20.8549 22.8577L20.8538 25.3594L25.3555 20.8577ZM14.5681 13.1446C14.759 13.1392 14.9491 13.1721 15.1271 13.2414C15.305 13.3108 15.4673 13.4151 15.6042 13.5482C15.7412 13.6814 15.8501 13.8406 15.9244 14.0165C15.9988 14.1925 16.0371 14.3816 16.0371 14.5726C16.0371 14.7636 15.9988 14.9526 15.9244 15.1286C15.8501 15.3045 15.7412 15.4638 15.6042 15.5969C15.4673 15.73 15.305 15.8344 15.1271 15.9037C14.9491 15.973 14.759 16.006 14.5681 16.0006C14.1892 16.0006 13.8258 15.85 13.5579 15.5821C13.29 15.3142 13.1395 14.9509 13.1395 14.572C13.1395 14.1931 13.29 13.8297 13.5579 13.5618C13.8258 13.2939 14.1892 13.1446 14.5681 13.1446ZM21.4252 13.1434C21.6161 13.138 21.8062 13.171 21.9842 13.2403C22.1622 13.3096 22.3244 13.4139 22.4614 13.5471C22.5983 13.6802 22.7072 13.8395 22.7816 14.0154C22.8559 14.1913 22.8942 14.3804 22.8942 14.5714C22.8942 14.7624 22.8559 14.9515 22.7816 15.1274C22.7072 15.3034 22.5983 15.4626 22.4614 15.5958C22.3244 15.7289 22.1622 15.8332 21.9842 15.9025C21.8062 15.9719 21.6161 16.0048 21.4252 15.9994C21.0535 15.9889 20.7005 15.8338 20.4413 15.5672C20.1821 15.3005 20.0371 14.9433 20.0371 14.5714C20.0371 14.1995 20.1821 13.8423 20.4413 13.5757C20.7005 13.309 21.0535 13.1539 21.4252 13.1434Z" fill="white"/>
</svg>
