<svg width="28" height="28" viewBox="0 0 28 28" fill="none" xmlns="http://www.w3.org/2000/svg">
<rect width="28" height="28" rx="14" fill="#1E1F1F" fill-opacity="0.6"/>
<path d="M19.1111 6C19.8773 6 20.6121 6.30436 21.1539 6.84614C21.6956 7.38791 22 8.12271 22 8.88889V15.0036C21.9998 15.5337 21.7891 16.042 21.4142 16.4169L16.4178 21.4142C16.2321 21.5999 16.0116 21.7473 15.7689 21.8478C15.5263 21.9483 15.2662 22 15.0036 22H8.88889C8.12271 22 7.38791 21.6956 6.84614 21.1539C6.30436 20.6121 6 19.8773 6 19.1111V8.88889C6 8.12271 6.30436 7.38791 6.84614 6.84614C7.38791 6.30436 8.12271 6 8.88889 6H19.1111ZM19.1111 7.33333H8.88889C8.47633 7.33333 8.08067 7.49722 7.78895 7.78895C7.49722 8.08067 7.33333 8.47633 7.33333 8.88889V19.1111C7.33333 19.9698 8.03022 20.6667 8.88889 20.6667H14.8889V17.9431C14.6905 17.9723 14.4909 17.9919 14.2907 18.0018L14 18.0089C12.8314 18.0188 11.6888 17.6646 10.7307 16.9956C10.5852 16.8949 10.4857 16.7406 10.454 16.5665C10.4383 16.4804 10.4398 16.3919 10.4583 16.3063C10.4768 16.2207 10.5119 16.1396 10.5618 16.0676C10.6116 15.9955 10.6752 15.934 10.7488 15.8866C10.8224 15.8391 10.9046 15.8066 10.9908 15.7909C11.1648 15.7592 11.3443 15.798 11.4898 15.8987C12.24 16.4178 13.072 16.6756 14 16.6756C14.4107 16.6756 14.803 16.6249 15.1769 16.5236C15.3988 16.063 15.739 15.6696 16.1627 15.3835C16.5863 15.0974 17.0783 14.9289 17.5884 14.8951L17.7778 14.8889H20.6667V8.88889C20.6667 8.47633 20.5028 8.08067 20.2111 7.78895C19.9193 7.49722 19.5237 7.33333 19.1111 7.33333ZM19.7236 16.2222H17.7787C17.3881 16.2223 17.0119 16.3692 16.7247 16.6338C16.4375 16.8985 16.2604 17.2614 16.2284 17.6507L16.2231 17.7778L16.2222 19.7236L19.7236 16.2222ZM11.3333 10.2231C11.4818 10.2189 11.6297 10.2445 11.7681 10.2985C11.9065 10.3524 12.0327 10.4335 12.1392 10.5371C12.2458 10.6406 12.3304 10.7645 12.3883 10.9013C12.4461 11.0382 12.4759 11.1852 12.4759 11.3338C12.4759 11.4823 12.4461 11.6294 12.3883 11.7662C12.3304 11.9031 12.2458 12.0269 12.1392 12.1305C12.0327 12.234 11.9065 12.3152 11.7681 12.3691C11.6297 12.423 11.4818 12.4486 11.3333 12.4444C11.0386 12.4444 10.756 12.3274 10.5477 12.119C10.3393 11.9106 10.2222 11.628 10.2222 11.3333C10.2222 11.0386 10.3393 10.756 10.5477 10.5477C10.756 10.3393 11.0386 10.2231 11.3333 10.2231ZM16.6667 10.2222C16.8152 10.218 16.963 10.2436 17.1014 10.2976C17.2398 10.3515 17.3661 10.4326 17.4726 10.5362C17.5791 10.6397 17.6638 10.7636 17.7216 10.9004C17.7794 11.0373 17.8092 11.1843 17.8092 11.3329C17.8092 11.4814 17.7794 11.6285 17.7216 11.7653C17.6638 11.9022 17.5791 12.026 17.4726 12.1296C17.3661 12.2331 17.2398 12.3143 17.1014 12.3682C16.963 12.4221 16.8152 12.4478 16.6667 12.4436C16.3775 12.4354 16.103 12.3148 15.9014 12.1074C15.6998 11.9 15.587 11.6221 15.587 11.3329C15.587 11.0436 15.6998 10.7658 15.9014 10.5584C16.103 10.351 16.3775 10.2304 16.6667 10.2222Z" fill="white"/>
</svg>
