<svg width="36" height="36" viewBox="0 0 36 36" fill="none" xmlns="http://www.w3.org/2000/svg">
<rect width="36" height="36" rx="18" fill="#1E1F1F" fill-opacity="0.6"/>
<path d="M24.572 7.71484C25.5571 7.71484 26.5018 8.10617 27.1984 8.80273C27.8949 9.4993 28.2863 10.444 28.2863 11.4291V19.2908C28.286 19.9724 28.0151 20.626 27.5331 21.108L21.1091 27.5331C20.8703 27.7719 20.5869 27.9613 20.2749 28.0905C19.9629 28.2198 19.6285 28.2863 19.2908 28.2863H11.4291C10.444 28.2863 9.4993 27.8949 8.80273 27.1984C8.10617 26.5018 7.71484 25.5571 7.71484 24.572V11.4291C7.71484 10.444 8.10617 9.4993 8.80273 8.80273C9.4993 8.10617 10.444 7.71484 11.4291 7.71484H24.572ZM24.572 9.42913H11.4291C10.8987 9.42913 10.39 9.63984 10.0149 10.0149C9.63984 10.39 9.42913 10.8987 9.42913 11.4291V24.572C9.42913 25.676 10.3251 26.572 11.4291 26.572H19.1434V23.0703C18.8884 23.1078 18.6317 23.133 18.3743 23.1457L18.0006 23.1548C16.4981 23.1676 15.029 22.7122 13.7971 21.852C13.6101 21.7226 13.4822 21.5241 13.4415 21.3004C13.4213 21.1896 13.4231 21.0759 13.4469 20.9658C13.4707 20.8558 13.5159 20.7514 13.58 20.6588C13.6441 20.5662 13.7258 20.4872 13.8204 20.4261C13.9151 20.3651 14.0208 20.3233 14.1316 20.3032C14.3553 20.2624 14.5861 20.3123 14.7731 20.4417C15.7377 21.1091 16.8074 21.4406 18.0006 21.4406C18.5286 21.4406 19.0329 21.3754 19.5137 21.2451C19.799 20.653 20.2364 20.1472 20.7811 19.7794C21.3258 19.4115 21.9584 19.1949 22.6143 19.1514L22.8577 19.1434H26.572V11.4291C26.572 10.8987 26.3613 10.39 25.9862 10.0149C25.6111 9.63984 25.1024 9.42913 24.572 9.42913ZM25.3594 20.8577H22.8588C22.3567 20.8577 21.873 21.0467 21.5037 21.3869C21.1345 21.7271 20.9067 22.1938 20.8657 22.6943L20.8588 22.8577L20.8577 25.3594L25.3594 20.8577ZM14.572 13.1446C14.7629 13.1392 14.953 13.1721 15.131 13.2414C15.3089 13.3108 15.4712 13.4151 15.6082 13.5482C15.7451 13.6814 15.854 13.8406 15.9283 14.0165C16.0027 14.1925 16.041 14.3816 16.041 14.5726C16.041 14.7636 16.0027 14.9526 15.9283 15.1286C15.854 15.3045 15.7451 15.4638 15.6082 15.5969C15.4712 15.73 15.3089 15.8344 15.131 15.9037C14.953 15.973 14.7629 16.006 14.572 16.0006C14.1931 16.0006 13.8297 15.85 13.5618 15.5821C13.2939 15.3142 13.1434 14.9509 13.1434 14.572C13.1434 14.1931 13.2939 13.8297 13.5618 13.5618C13.8297 13.2939 14.1931 13.1446 14.572 13.1446ZM21.4291 13.1434C21.6201 13.138 21.8101 13.171 21.9881 13.2403C22.1661 13.3096 22.3283 13.4139 22.4653 13.5471C22.6023 13.6802 22.7111 13.8395 22.7855 14.0154C22.8598 14.1913 22.8981 14.3804 22.8981 14.5714C22.8981 14.7624 22.8598 14.9515 22.7855 15.1274C22.7111 15.3034 22.6023 15.4626 22.4653 15.5958C22.3283 15.7289 22.1661 15.8332 21.9881 15.9025C21.8101 15.9719 21.6201 16.0048 21.4291 15.9994C21.0574 15.9889 20.7044 15.8338 20.4452 15.5672C20.186 15.3005 20.041 14.9433 20.041 14.5714C20.041 14.1995 20.186 13.8423 20.4452 13.5757C20.7044 13.309 21.0574 13.1539 21.4291 13.1434Z" fill="white"/>
</svg>
