<svg width="24" height="24" viewBox="0 0 24 24" fill="none" xmlns="http://www.w3.org/2000/svg">
<path d="M5 7.625H19M10.25 11.125V16.375M13.75 11.125V16.375M5.875 7.625L6.75 18.125C6.75 18.5891 6.93437 19.0342 7.26256 19.3624C7.59075 19.6906 8.03587 19.875 8.5 19.875H15.5C15.9641 19.875 16.4092 19.6906 16.7374 19.3624C17.0656 19.0342 17.25 18.5891 17.25 18.125L18.125 7.625M9.375 7.625V5C9.375 4.76794 9.46719 4.54538 9.63128 4.38128C9.79538 4.21719 10.0179 4.125 10.25 4.125H13.75C13.9821 4.125 14.2046 4.21719 14.3687 4.38128C14.5328 4.54538 14.625 4.76794 14.625 5V7.625" stroke="black" stroke-width="1.3125" stroke-linecap="round" stroke-linejoin="round"/>
</svg>
